<?xml version="1.0" encoding="UTF-8" standalone="no"?>
<svg
   width="800"
   height="600"
   version="1.1"
   id="svg206"
   sodipodi:docname="version-acceptor-dfa.svg"
   inkscape:version="1.1.2 (b8e25be8, 2022-02-05)"
   inkscape:export-filename="/Users/ametec/Developer/amplify-ci-support/src/fastlane/release_actions/docs/version-acceptor-dfa.png"
   inkscape:export-xdpi="96"
   inkscape:export-ydpi="96"
   xmlns:inkscape="http://www.inkscape.org/namespaces/inkscape"
   xmlns:sodipodi="http://sodipodi.sourceforge.net/DTD/sodipodi-0.dtd"
   xmlns="http://www.w3.org/2000/svg"
   xmlns:svg="http://www.w3.org/2000/svg">
  <defs
     id="defs210" />
  <sodipodi:namedview
     id="namedview208"
     pagecolor="#ffffff"
     bordercolor="#999999"
     borderopacity="1"
     inkscape:pageshadow="0"
     inkscape:pageopacity="1"
     inkscape:pagecheckerboard="0"
     showgrid="false"
     inkscape:zoom="1.1983333"
     inkscape:cx="267.87205"
     inkscape:cy="306.2587"
     inkscape:window-width="1272"
     inkscape:window-height="950"
     inkscape:window-x="213"
     inkscape:window-y="75"
     inkscape:window-maximized="0"
     inkscape:current-layer="svg206" />
  <ellipse
     stroke="black"
     stroke-width="1"
     fill="none"
     cx="39.5"
     cy="97.5"
     rx="30"
     ry="30"
     id="ellipse2" />
  <text
     x="22.5"
     y="103.5"
     font-family="Times New Roman"
     font-size="20"
     id="text4">start</text>
  <ellipse
     stroke="black"
     stroke-width="1"
     fill="none"
     cx="180.5"
     cy="97.5"
     rx="30"
     ry="30"
     id="ellipse6" />
  <text
     x="157.5"
     y="103.5"
     font-family="Times New Roman"
     font-size="20"
     id="text8">major</text>
  <ellipse
     stroke="black"
     stroke-width="1"
     fill="none"
     cx="174.5"
     cy="207.5"
     rx="30"
     ry="30"
     id="ellipse10" />
  <text
     x="131.5"
     y="213.5"
     font-family="Times New Roman"
     font-size="20"
     id="text12">major_end</text>
  <ellipse
     stroke="black"
     stroke-width="1"
     fill="none"
     cx="308.5"
     cy="97.5"
     rx="30"
     ry="30"
     id="ellipse14" />
  <text
     x="262.5"
     y="103.5"
     font-family="Times New Roman"
     font-size="20"
     id="text16">minor_start</text>
  <ellipse
     stroke="black"
     stroke-width="1"
     fill="none"
     cx="457.5"
     cy="97.5"
     rx="30"
     ry="30"
     id="ellipse18" />
  <text
     x="433.5"
     y="103.5"
     font-family="Times New Roman"
     font-size="20"
     id="text20">minor</text>
  <ellipse
     stroke="black"
     stroke-width="1"
     fill="none"
     cx="457.5"
     cy="207.5"
     rx="30"
     ry="30"
     id="ellipse22" />
  <text
     x="414.5"
     y="213.5"
     font-family="Times New Roman"
     font-size="20"
     id="text24">minor_end</text>
  <ellipse
     stroke="black"
     stroke-width="1"
     fill="none"
     cx="593.5"
     cy="97.5"
     rx="30"
     ry="30"
     id="ellipse26" />
  <text
     x="549.5"
     y="103.5"
     font-family="Times New Roman"
     font-size="20"
     id="text28">patch_start</text>
  <ellipse
     stroke="black"
     stroke-width="1"
     fill="none"
     cx="749.5"
     cy="97.5"
     rx="30"
     ry="30"
     id="ellipse30" />
  <text
     x="727.5"
     y="103.5"
     font-family="Times New Roman"
     font-size="20"
     id="text32">patch</text>
  <ellipse
     stroke="black"
     stroke-width="1"
     fill="none"
     cx="749.5"
     cy="97.5"
     rx="24"
     ry="24"
     id="ellipse34" />
  <ellipse
     stroke="black"
     stroke-width="1"
     fill="none"
     cx="749.5"
     cy="201.5"
     rx="30"
     ry="30"
     id="ellipse36" />
  <text
     x="708.5"
     y="207.5"
     font-family="Times New Roman"
     font-size="20"
     id="text38">patch_end</text>
  <ellipse
     stroke="black"
     stroke-width="1"
     fill="none"
     cx="749.5"
     cy="201.5"
     rx="24"
     ry="24"
     id="ellipse40" />
  <ellipse
     stroke="black"
     stroke-width="1"
     fill="none"
     cx="292.5"
     cy="372.5"
     rx="30"
     ry="30"
     id="ellipse42" />
  <text
     x="251.5"
     y="378.5"
     font-family="Times New Roman"
     font-size="20"
     id="text44">prerelease</text>
  <ellipse
     stroke="black"
     stroke-width="1"
     fill="none"
     cx="292.5"
     cy="372.5"
     rx="24"
     ry="24"
     id="ellipse46" />
  <ellipse
     stroke="black"
     stroke-width="1"
     fill="none"
     cx="578.5"
     cy="372.5"
     rx="30"
     ry="30"
     id="ellipse48" />
  <text
     x="557.5"
     y="378.5"
     font-family="Times New Roman"
     font-size="20"
     id="text50">build</text>
  <ellipse
     stroke="black"
     stroke-width="1"
     fill="none"
     cx="578.5"
     cy="372.5"
     rx="24"
     ry="24"
     id="ellipse52" />
  <ellipse
     stroke="black"
     stroke-width="1"
     fill="none"
     cx="578.5"
     cy="553.5"
     rx="30"
     ry="30"
     id="ellipse54" />
  <text
     x="495.5"
     y="559.5"
     font-family="Times New Roman"
     font-size="20"
     id="text56">build_new_identifier</text>
  <ellipse
     stroke="black"
     stroke-width="1"
     fill="none"
     cx="292.5"
     cy="553.5"
     rx="30"
     ry="30"
     id="ellipse58" />
  <text
     x="189.5"
     y="559.5"
     font-family="Times New Roman"
     font-size="20"
     id="text60">prerelease_new_identifier</text>
  <polygon
     stroke="black"
     stroke-width="1"
     points="69.5,97.5 150.5,97.5"
     id="polygon62" />
  <polygon
     fill="black"
     stroke-width="1"
     points="150.5,97.5 142.5,92.5 142.5,102.5"
     id="polygon64" />
  <text
     x="90.5"
     y="118.5"
     font-family="Times New Roman"
     font-size="20"
     id="text66">[1-9]</text>
  <polygon
     stroke="black"
     stroke-width="1"
     points="62.757,116.45 151.243,188.55"
     id="polygon68" />
  <polygon
     fill="black"
     stroke-width="1"
     points="151.243,188.55 148.199,179.62 141.883,187.373"
     id="polygon70" />
  <text
     x="91.5"
     y="173.5"
     font-family="Times New Roman"
     font-size="20"
     id="text72">0</text>
  <path
     stroke="black"
     stroke-width="1"
     fill="none"
     d="M 167.275,70.703 A 22.5,22.5 0 1 1 193.725,70.703"
     id="path74" />
  <text
     x="160.5"
     y="20.5"
     font-family="Times New Roman"
     font-size="20"
     id="text76">[0-9]</text>
  <polygon
     fill="black"
     stroke-width="1"
     points="193.725,70.703 202.473,67.17 194.382,61.292"
     id="polygon78" />
  <polygon
     stroke="black"
     stroke-width="1"
     points="210.5,97.5 278.5,97.5"
     id="polygon80" />
  <polygon
     fill="black"
     stroke-width="1"
     points="278.5,97.5 270.5,92.5 270.5,102.5"
     id="polygon82" />
  <text
     x="242.5"
     y="118.5"
     font-family="Times New Roman"
     font-size="20"
     id="text84">.</text>
  <polygon
     stroke="black"
     stroke-width="1"
     points="197.688,188.465 285.312,116.535"
     id="polygon86" />
  <polygon
     fill="black"
     stroke-width="1"
     points="285.312,116.535 275.956,117.746 282.301,125.475"
     id="polygon88" />
  <text
     x="246.5"
     y="173.5"
     font-family="Times New Roman"
     font-size="20"
     id="text90">.</text>
  <path
     stroke="black"
     stroke-width="1"
     fill="none"
     d="M 447.157,69.464 A 22.5,22.5 0 1 1 473.461,72.237"
     id="path92" />
  <text
     x="449.5"
     y="19.5"
     font-family="Times New Roman"
     font-size="20"
     id="text94">[0-9]</text>
  <polygon
     fill="black"
     stroke-width="1"
     points="473.461,72.237 482.531,69.64 475.101,62.946"
     id="polygon96" />
  <polygon
     stroke="black"
     stroke-width="1"
     points="338.5,97.5 427.5,97.5"
     id="polygon98" />
  <polygon
     fill="black"
     stroke-width="1"
     points="427.5,97.5 419.5,92.5 419.5,102.5"
     id="polygon100" />
  <text
     x="363.5"
     y="118.5"
     font-family="Times New Roman"
     font-size="20"
     id="text102">[1-9]</text>
  <polygon
     stroke="black"
     stroke-width="1"
     points="332.635,115.318 433.365,189.682"
     id="polygon104" />
  <polygon
     fill="black"
     stroke-width="1"
     points="433.365,189.682 429.898,180.908 423.959,188.953"
     id="polygon106" />
  <text
     x="367.5"
     y="173.5"
     font-family="Times New Roman"
     font-size="20"
     id="text108">0</text>
  <polygon
     stroke="black"
     stroke-width="1"
     points="487.5,97.5 563.5,97.5"
     id="polygon110" />
  <polygon
     fill="black"
     stroke-width="1"
     points="563.5,97.5 555.5,92.5 555.5,102.5"
     id="polygon112" />
  <text
     x="523.5"
     y="118.5"
     font-family="Times New Roman"
     font-size="20"
     id="text114">.</text>
  <polygon
     stroke="black"
     stroke-width="1"
     points="623.5,97.5 719.5,97.5"
     id="polygon116" />
  <polygon
     fill="black"
     stroke-width="1"
     points="719.5,97.5 711.5,92.5 711.5,102.5"
     id="polygon118" />
  <text
     x="651.5"
     y="118.5"
     font-family="Times New Roman"
     font-size="20"
     id="text120">[1-9]</text>
  <path
     stroke="black"
     stroke-width="1"
     fill="none"
     d="M 736.275,70.703 A 22.5,22.5 0 1 1 762.725,70.703"
     id="path122" />
  <text
     x="729.5"
     y="20.5"
     font-family="Times New Roman"
     font-size="20"
     id="text124">[0-9]</text>
  <polygon
     fill="black"
     stroke-width="1"
     points="762.725,70.703 771.473,67.17 763.382,61.292"
     id="polygon126" />
  <polygon
     stroke="black"
     stroke-width="1"
     points="618.462,114.141 724.538,184.859"
     id="polygon128" />
  <polygon
     fill="black"
     stroke-width="1"
     points="724.538,184.859 720.656,176.261 715.109,184.582"
     id="polygon130" />
  <text
     x="656.5"
     y="170.5"
     font-family="Times New Roman"
     font-size="20"
     id="text132">0</text>
  <polygon
     stroke="black"
     stroke-width="1"
     points="480.825,188.634 570.175,116.366"
     id="polygon134" />
  <polygon
     fill="black"
     stroke-width="1"
     points="570.175,116.366 560.81,117.509 567.099,125.285"
     id="polygon136" />
  <text
     x="530.5"
     y="173.5"
     font-family="Times New Roman"
     font-size="20"
     id="text138">.</text>
  <polygon
     stroke="black"
     stroke-width="1"
     points="721.403,212.013 320.597,361.987"
     id="polygon140" />
  <polygon
     fill="black"
     stroke-width="1"
     points="320.597,361.987 329.842,363.866 326.338,354.5"
     id="polygon142" />
  <text
     x="509.5"
     y="277.5"
     font-family="Times New Roman"
     font-size="20"
     id="text144">-</text>
  <polygon
     stroke="black"
     stroke-width="1"
     points="728.287,222.713 599.713,351.287"
     id="polygon146" />
  <polygon
     fill="black"
     stroke-width="1"
     points="599.713,351.287 608.906,349.165 601.835,342.094"
     id="polygon148" />
  <text
     x="647.5"
     y="278.5"
     font-family="Times New Roman"
     font-size="20"
     id="text150">+</text>
  <path
     stroke="black"
     stroke-width="1"
     fill="none"
     d="M 321.45,379.907 A 22.5,22.5 0 1 1 304.23,399.984"
     id="path152" />
  <text
     x="349.5"
     y="436.5"
     font-family="'Times New Roman'"
     font-size="20px"
     id="text154">[0-9a-zA-Z-]</text>
  <polygon
     fill="black"
     stroke-width="1"
     points="304.23,399.984 301.218,408.924 310.946,406.61"
     id="polygon156" />
  <polygon
     stroke="black"
     stroke-width="1"
     points="322.5,372.5 548.5,372.5"
     id="polygon158" />
  <polygon
     fill="black"
     stroke-width="1"
     points="548.5,372.5 540.5,367.5 540.5,377.5"
     id="polygon160" />
  <text
     x="429.5"
     y="393.5"
     font-family="Times New Roman"
     font-size="20"
     id="text162">+</text>
  <path
     stroke="black"
     stroke-width="1"
     fill="none"
     d="M 607.827,378.237 A 22.5,22.5 0 1 1 591.785,399.268"
     id="path164" />
  <text
     x="637.5"
     y="433.5"
     font-family="'Times New Roman'"
     font-size="20px"
     id="text166">[0-9a-zA-Z-]</text>
  <polygon
     fill="black"
     stroke-width="1"
     points="591.785,399.268 589.289,408.365 598.869,405.498"
     id="polygon168" />
  <path
     stroke="black"
     stroke-width="1"
     fill="none"
     d="M 562.602,528.12 A 147.343,147.343 0 0 1 562.602,397.88"
     id="path170" />
  <polygon
     fill="black"
     stroke-width="1"
     points="562.602,397.88 554.582,402.847 563.552,407.266"
     id="polygon172" />
  <text
     x="444.5"
     y="469.5"
     font-family="'Times New Roman'"
     font-size="20px"
     id="text174">[0-9a-zA-Z-]</text>
  <path
     stroke="black"
     stroke-width="1"
     fill="none"
     d="M 588.724,400.68 A 224.545,224.545 0 0 1 588.724,525.32"
     id="path176" />
  <polygon
     fill="black"
     stroke-width="1"
     points="588.724,525.32 595.748,519.022 586.141,516.246"
     id="polygon178" />
  <text
     x="602.5"
     y="469.5"
     font-family="Times New Roman"
     font-size="20"
     id="text180">.</text>
  <path
     stroke="black"
     stroke-width="1"
     fill="none"
     d="M 301.194,401.196 A 263.058,263.058 0 0 1 301.194,524.804"
     id="path182" />
  <polygon
     fill="black"
     stroke-width="1"
     points="301.194,524.804 307.934,518.203 298.214,515.854"
     id="polygon184" />
  <text
     x="313.5"
     y="469.5"
     font-family="Times New Roman"
     font-size="20"
     id="text186">.</text>
  <path
     stroke="black"
     stroke-width="1"
     fill="none"
     d="M 276.035,528.488 A 142.637,142.637 0 0 1 276.035,397.512"
     id="path188" />
  <polygon
     fill="black"
     stroke-width="1"
     points="276.035,397.512 267.92,402.323 276.804,406.915"
     id="polygon190" />
  <text
     x="157.5"
     y="469.5"
     font-family="'Times New Roman'"
     font-size="20px"
     id="text192">[0-9a-zA-Z-]</text>
  <polygon
     stroke="black"
     stroke-width="1"
     points="723.795,112.968 318.205,357.032"
     id="polygon194" />
  <polygon
     fill="black"
     stroke-width="1"
     points="318.205,357.032 327.638,357.191 322.482,348.623"
     id="polygon196" />
  <text
     x="509.5"
     y="225.5"
     font-family="Times New Roman"
     font-size="20"
     id="text198">-</text>
  <polygon
     stroke="black"
     stroke-width="1"
     points="733.658,122.976 594.342,347.024"
     id="polygon200" />
  <polygon
     fill="black"
     stroke-width="1"
     points="594.342,347.024 602.812,342.87 594.32,337.59"
     id="polygon202" />
  <text
     x="646.5"
     y="228.5"
     font-family="Times New Roman"
     font-size="20"
     id="text204">+</text>
</svg>
